<?xml version="1.0" encoding="iso-8859-1"?>
<!-- Generator: Adobe Illustrator 19.0.0, SVG Export Plug-In . SVG Version: 6.00 Build 0)  -->
<svg version="1.1" id="Layer_1" xmlns="http://www.w3.org/2000/svg" xmlns:xlink="http://www.w3.org/1999/xlink" x="0px" y="0px"
	 viewBox="0 0 512 512" style="enable-background:new 0 0 512 512;" xml:space="preserve">
<g>
	<g>
		<path d="M492.773,290.106L415.545,83.988c-5.018-13.384-19.582-23.661-33.873-23.661h-18.618c-5.141,0-9.309,4.168-9.309,9.309
			s4.168,9.309,9.309,9.309h18.618c6.482,0,14.164,5.508,16.441,11.58l67.502,180.096c-19.625-9.412-44.873-14.484-74.634-14.484
			c-40.841,0-73.189,9.651-94.139,26.818c-7.855-2.94-24.175-8.166-40.843-8.166c-11.854,0-24.334,2.623-30.718,4.183
			c-4.457,1.09-8.134,2.103-11.132,3.178c-20.975-16.653-52.945-25.969-93.132-25.969c-29.761,0-55.009,5.118-74.634,14.531
			l67.502-180.187c2.277-6.072,9.959-11.58,16.441-11.58h18.618c5.141,0,9.309-4.168,9.309-9.309s-4.168-9.309-9.309-9.309h-18.618
			c-14.291,0-28.854,10.277-33.873,23.661L19.227,290.015C6.755,303.332,0,320.221,0,339.919c0,27.613,12.984,55.785,35.623,77.257
			c23.439,22.232,53.766,34.487,85.395,34.487c31.63,0,61.957-12.238,85.396-34.469c22.639-21.472,35.623-49.618,35.623-77.232
			c0-16.307-4.627-30.658-13.295-42.673c7.691-1.931,18.175-3.87,27.259-3.87c9.698,0,19.55,2.283,26.818,4.483
			c-8.384,11.89-12.855,26.033-12.855,42.064c0,27.613,12.984,55.763,35.623,77.234c23.439,22.232,53.766,34.475,85.395,34.475
			c31.63,0,61.957-12.243,85.396-34.475C499.016,395.727,512,367.577,512,339.964C512,320.267,505.246,303.423,492.773,290.106z
			 M121.018,433.055c-48.339,0-102.4-39.811-102.4-93.091c0-60.465,78.377-65.164,102.4-65.164c24.023,0,102.4,4.699,102.4,65.164
			C223.418,393.244,169.357,433.055,121.018,433.055z M390.982,433.055c-48.339,0-102.4-39.811-102.4-93.091
			c0-60.465,78.377-65.164,102.4-65.164c24.023,0,102.4,4.699,102.4,65.164C493.382,393.244,439.32,433.055,390.982,433.055z"/>
	</g>
</g>
<g>
	<g>
		<path d="M86.171,305.454c-3.632-3.634-9.532-3.634-13.164,0l-23.734,23.734c-3.636,3.636-3.636,9.529,0,13.166
			c1.816,1.817,4.2,2.726,6.582,2.726c2.382,0,4.766-0.909,6.582-2.726l23.734-23.734C89.807,314.984,89.807,309.09,86.171,305.454z
			"/>
	</g>
</g>
<g>
	<g>
		<path d="M356.134,305.454c-3.632-3.634-9.532-3.634-13.164,0l-23.734,23.734c-3.636,3.636-3.636,9.529,0,13.166
			c1.816,1.817,4.2,2.726,6.582,2.726c2.382,0,4.766-0.909,6.582-2.726l23.734-23.734
			C359.771,314.984,359.771,309.09,356.134,305.454z"/>
	</g>
</g>
<g>
	<g>
		<path d="M146.218,296.145c-3.632-3.634-9.532-3.634-13.164,0l-74.473,74.473c-3.636,3.636-3.636,9.53,0,13.166
			c1.816,1.817,4.2,2.726,6.582,2.726c2.382,0,4.766-0.909,6.582-2.726l74.473-74.473
			C149.855,305.675,149.855,299.781,146.218,296.145z"/>
	</g>
</g>
<g>
	<g>
		<path d="M416.182,296.145c-3.632-3.634-9.532-3.634-13.164,0l-74.473,74.473c-3.636,3.636-3.636,9.53,0,13.166
			c1.816,1.817,4.2,2.726,6.582,2.726c2.382,0,4.766-0.909,6.582-2.726l74.473-74.473
			C419.818,305.675,419.818,299.781,416.182,296.145z"/>
	</g>
</g>
<g>
</g>
<g>
</g>
<g>
</g>
<g>
</g>
<g>
</g>
<g>
</g>
<g>
</g>
<g>
</g>
<g>
</g>
<g>
</g>
<g>
</g>
<g>
</g>
<g>
</g>
<g>
</g>
<g>
</g>
</svg>
